<svg xmlns="http://www.w3.org/2000/svg" width="1200" height="280" viewBox="0 0 1200 280" role="img" aria-labelledby="title desc">
  <title id="title">SkeinRank</title>
  <desc id="desc">Open-source control planes for reliable AI systems</desc>
  <defs>
    <linearGradient id="bg" x1="0" y1="0" x2="1" y2="1">
      <stop offset="0" stop-color="#f8fafc"/>
      <stop offset="1" stop-color="#eef6f1"/>
    </linearGradient>
    <linearGradient id="line" x1="0" y1="0" x2="1" y2="0">
      <stop offset="0" stop-color="#16a34a"/>
      <stop offset="0.5" stop-color="#0ea5e9"/>
      <stop offset="1" stop-color="#7c3aed"/>
    </linearGradient>
    <pattern id="grid" width="32" height="32" patternUnits="userSpaceOnUse">
      <path d="M 32 0 L 0 0 0 32" fill="none" stroke="#0f172a" stroke-opacity="0.045" stroke-width="1"/>
    </pattern>
  </defs>
  <rect x="1" y="1" width="1198" height="278" rx="22" fill="url(#bg)" stroke="#cbd5e1"/>
  <rect x="1" y="1" width="1198" height="278" rx="22" fill="url(#grid)"/>
  <path d="M92 202 C160 158, 228 150, 274 176" fill="none" stroke="url(#line)" stroke-width="3" stroke-linecap="round" opacity="0.42"/>
  <path d="M926 74 C1000 84, 1056 112, 1108 142" fill="none" stroke="url(#line)" stroke-width="3" stroke-linecap="round" opacity="0.42"/>
  <circle cx="92" cy="202" r="7" fill="#16a34a"/>
  <circle cx="1108" cy="142" r="7" fill="#7c3aed"/>
  <g font-family="-apple-system,BlinkMacSystemFont,'Segoe UI',Helvetica,Arial,sans-serif" text-anchor="middle">
    <text x="600" y="88" fill="#0f172a" font-size="56" font-weight="750" letter-spacing="-1.5">SkeinRank</text>
    <text x="600" y="130" fill="#334155" font-size="23" font-weight="500">Open-source control planes for reliable AI systems</text>
    <g font-size="15" font-weight="650" letter-spacing="0.8">
      <rect x="287" y="171" width="180" height="38" rx="19" fill="#ffffff" stroke="#86efac"/>
      <text x="377" y="196" fill="#166534">GOVERN LANGUAGE</text>
      <text x="495" y="197" fill="#64748b" font-size="20">→</text>
      <rect x="518" y="171" width="164" height="38" rx="19" fill="#ffffff" stroke="#7dd3fc"/>
      <text x="600" y="196" fill="#075985">ALIGN AGENTS</text>
      <text x="710" y="197" fill="#64748b" font-size="20">→</text>
      <rect x="733" y="171" width="180" height="38" rx="19" fill="#ffffff" stroke="#c4b5fd"/>
      <text x="823" y="196" fill="#5b21b6">VERIFY CHANGES</text>
    </g>
  </g>
</svg>
