<svg xmlns="http://www.w3.org/2000/svg" width="1200" height="280" viewBox="0 0 1200 280" role="img" aria-labelledby="title desc">
  <title id="title">SkeinRank</title>
  <desc id="desc">Open-source control planes for reliable AI systems</desc>
  <defs>
    <linearGradient id="bg" x1="0" y1="0" x2="1" y2="1">
      <stop offset="0" stop-color="#0d1117"/>
      <stop offset="1" stop-color="#101b16"/>
    </linearGradient>
    <linearGradient id="line" x1="0" y1="0" x2="1" y2="0">
      <stop offset="0" stop-color="#4ade80"/>
      <stop offset="0.5" stop-color="#38bdf8"/>
      <stop offset="1" stop-color="#a78bfa"/>
    </linearGradient>
    <pattern id="grid" width="32" height="32" patternUnits="userSpaceOnUse">
      <path d="M 32 0 L 0 0 0 32" fill="none" stroke="#ffffff" stroke-opacity="0.04" stroke-width="1"/>
    </pattern>
  </defs>
  <rect x="1" y="1" width="1198" height="278" rx="22" fill="url(#bg)" stroke="#30363d"/>
  <rect x="1" y="1" width="1198" height="278" rx="22" fill="url(#grid)"/>
  <path d="M92 202 C160 158, 228 150, 274 176" fill="none" stroke="url(#line)" stroke-width="3" stroke-linecap="round" opacity="0.52"/>
  <path d="M926 74 C1000 84, 1056 112, 1108 142" fill="none" stroke="url(#line)" stroke-width="3" stroke-linecap="round" opacity="0.52"/>
  <circle cx="92" cy="202" r="7" fill="#4ade80"/>
  <circle cx="1108" cy="142" r="7" fill="#a78bfa"/>
  <g font-family="-apple-system,BlinkMacSystemFont,'Segoe UI',Helvetica,Arial,sans-serif" text-anchor="middle">
    <text x="600" y="88" fill="#f0f6fc" font-size="56" font-weight="750" letter-spacing="-1.5">SkeinRank</text>
    <text x="600" y="130" fill="#b1bac4" font-size="23" font-weight="500">Open-source control planes for reliable AI systems</text>
    <g font-size="15" font-weight="650" letter-spacing="0.8">
      <rect x="287" y="171" width="180" height="38" rx="19" fill="#161b22" stroke="#238636"/>
      <text x="377" y="196" fill="#7ee787">GOVERN LANGUAGE</text>
      <text x="495" y="197" fill="#8b949e" font-size="20">→</text>
      <rect x="518" y="171" width="164" height="38" rx="19" fill="#161b22" stroke="#1f6feb"/>
      <text x="600" y="196" fill="#79c0ff">ALIGN AGENTS</text>
      <text x="710" y="197" fill="#8b949e" font-size="20">→</text>
      <rect x="733" y="171" width="180" height="38" rx="19" fill="#161b22" stroke="#8957e5"/>
      <text x="823" y="196" fill="#d2a8ff">VERIFY CHANGES</text>
    </g>
  </g>
</svg>
