<svg xmlns="http://www.w3.org/2000/svg" width="580" height="236" viewBox="0 0 580 236" role="img" aria-labelledby="title desc" shape-rendering="geometricPrecision">
  <title id="title">SkeinRank</title>
  <desc id="desc">Domain language control for search, RAG, and agents</desc>
  <rect x="1" y="1" width="578" height="234" rx="22" fill="#ffffff" stroke="#d0d7de"/>
  <rect x="14" y="22" width="8" height="192" rx="4" fill="#7c3aed"/>
  <g>
      <rect x="40" y="38" width="54" height="54" rx="16" fill="#f6f8fa" stroke="#7c3aed" stroke-width="2"/>
      <g transform="translate(53.500 51.500) scale(1.125000)" fill="none" stroke="#7c3aed" stroke-width="2" stroke-linecap="round" stroke-linejoin="round">
        <rect width="6" height="6" x="9" y="2" rx="1"/><rect width="6" height="6" x="16" y="16" rx="1"/><rect width="6" height="6" x="2" y="16" rx="1"/><path d="M5 16v-3a2 2 0 0 1 2-2h10a2 2 0 0 1 2 2v3"/><path d="M12 12V8"/>
      </g>
    </g>
  <g font-family="-apple-system,BlinkMacSystemFont,'Segoe UI',Helvetica,Arial,sans-serif">
    <text x="118" y="74" fill="#24292f" font-size="30" font-weight="760" letter-spacing="-0.5">SkeinRank</text>
    <text x="118" y="108" fill="#57606a" font-size="16" font-weight="500">Domain language control for search,</text>
    <text x="118" y="132" fill="#57606a" font-size="16" font-weight="500">RAG, and agents</text>
    <rect x="40" y="172" width="110" height="36" rx="18.0" fill="#ffffff" stroke="#8250df"/><text x="95.0" y="194.8" fill="#8250df" font-size="14" font-weight="650" text-anchor="middle">#discover</text>
    <rect x="164" y="172" width="110" height="36" rx="18.0" fill="#ffffff" stroke="#8250df"/><text x="219.0" y="194.8" fill="#8250df" font-size="14" font-weight="650" text-anchor="middle">#review</text>
    <rect x="288" y="172" width="110" height="36" rx="18.0" fill="#ffffff" stroke="#8250df"/><text x="343.0" y="194.8" fill="#8250df" font-size="14" font-weight="650" text-anchor="middle">#publish</text>
  </g>
  <g transform="translate(524 76)" stroke="#57606a" stroke-width="2.4" fill="none" stroke-linecap="round" stroke-linejoin="round"><path d="M-18 0h28M2-10l10 10-10 10"/></g>
</svg>