<svg xmlns="http://www.w3.org/2000/svg" width="580" height="236" viewBox="0 0 580 236" role="img" aria-labelledby="title desc">
  <title id="title">SkeinRank</title>
  <desc id="desc">Domain language control for search, RAG, and agents</desc>
  <rect x="1" y="1" width="578" height="234" rx="22" fill="#0d1117" stroke="#30363d"/>
  <rect x="14" y="22" width="8" height="192" rx="4.0" fill="#8b5cf6"/>
  <g transform="translate(40 38)">
      <rect width="54" height="54" rx="16" fill="#161b22" stroke="#8b5cf6" stroke-width="2"/>
      <rect x="12" y="15" width="30" height="24" rx="7" fill="none" stroke="#8b5cf6" stroke-width="2.2"/>
      <path d="M12 25h42" stroke="#8b5cf6" stroke-width="2.2" stroke-linecap="round"/>
      <rect x="19" y="33" width="10" height="10" rx="2.5" fill="none" stroke="#8b5cf6" stroke-width="2"/>
      <rect x="35" y="33" width="10" height="10" rx="2.5" fill="none" stroke="#8b5cf6" stroke-width="2"/>
      <path d="M20 20h5" stroke="#8b5cf6" stroke-width="2.2" stroke-linecap="round"/>
    </g>
  <g font-family="-apple-system,BlinkMacSystemFont,'Segoe UI',Helvetica,Arial,sans-serif">
    <text x="118" y="74" fill="#f0f6fc" font-size="30" font-weight="760" letter-spacing="-0.5">SkeinRank</text>
    <text x="118" y="108" fill="#b1bac4" font-size="16" font-weight="500">Domain language control for search,</text>
    <text x="118" y="132" fill="#b1bac4" font-size="16" font-weight="500">RAG, and agents</text>
    <rect x="40" y="172" width="110" height="36" rx="18.0" fill="#0d1117" stroke="#8957e5"/><text x="95.0" y="194.8" fill="#d2a8ff" font-size="14" font-weight="650" text-anchor="middle">#discover</text>
    <rect x="164" y="172" width="110" height="36" rx="18.0" fill="#0d1117" stroke="#8957e5"/><text x="219.0" y="194.8" fill="#d2a8ff" font-size="14" font-weight="650" text-anchor="middle">#review</text>
    <rect x="288" y="172" width="110" height="36" rx="18.0" fill="#0d1117" stroke="#8957e5"/><text x="343.0" y="194.8" fill="#d2a8ff" font-size="14" font-weight="650" text-anchor="middle">#publish</text>
  </g>
  <g transform="translate(500 76)" stroke="#b1bac4" stroke-width="2.4" fill="none" stroke-linecap="round" stroke-linejoin="round"><path d="M-18 0h28M2-10l10 10-10 10"/></g>
</svg>